<svg xmlns="http://www.w3.org/2000/svg" width="59.462" height="59.412" viewBox="0 0 59.462 59.412">
  <g id="customer-support" transform="translate(0 -0.214)">
    <g id="Group_16" data-name="Group 16" transform="translate(32.026 0.214)">
      <g id="Group_15" data-name="Group 15" transform="translate(0 0)">
        <path id="Path_34" data-name="Path 34" d="M299.581.214h-20.2a3.622,3.622,0,0,0-3.618,3.618v13.8a3.622,3.622,0,0,0,3.618,3.618h.7V24.42a1.468,1.468,0,0,0,2.508,1.039l4.211-4.211h12.78a3.622,3.622,0,0,0,3.618-3.618V3.832A3.623,3.623,0,0,0,299.581.214Zm0,19.166h-12.8a1.8,1.8,0,0,0-1.278.529l-3.548,3.548v-2.27a1.81,1.81,0,0,0-1.808-1.808h-.76a1.753,1.753,0,0,1-1.751-1.751V3.832a1.753,1.753,0,0,1,1.751-1.751h20.2a1.753,1.753,0,0,1,1.751,1.751v13.8h0A1.753,1.753,0,0,1,299.581,19.38Z" transform="translate(-275.763 -0.214)" fill="#fff"/>
      </g>
    </g>
    <g id="Group_18" data-name="Group 18" transform="translate(44.606 14.235)">
      <g id="Group_17" data-name="Group 17">
        <path id="Path_35" data-name="Path 35" d="M386.205,121.314a1.179,1.179,0,0,0-.875-.369,1.22,1.22,0,0,0-.882.361,1.211,1.211,0,0,0,0,1.743,1.2,1.2,0,0,0,.883.369,1.178,1.178,0,0,0,.875-.369,1.221,1.221,0,0,0,0-1.735Z" transform="translate(-384.077 -120.945)" fill="#fff"/>
      </g>
    </g>
    <g id="Group_20" data-name="Group 20" transform="translate(42.919 4.871)">
      <g id="Group_19" data-name="Group 19">
        <path id="Path_36" data-name="Path 36" d="M375.193,41.071a3.852,3.852,0,0,0-2.474-.755,3.554,3.554,0,0,0-2.329.691,1.93,1.93,0,0,0-.835,1.462.821.821,0,0,0,.3.675,1.025,1.025,0,0,0,.664.241.679.679,0,0,0,.48-.178,1.447,1.447,0,0,0,.3-.392,1.015,1.015,0,0,1,.464-.393,1.984,1.984,0,0,1,.9-.178,1.792,1.792,0,0,1,1.04.277.912.912,0,0,1,.4.8,1.139,1.139,0,0,1-.177.593,2.276,2.276,0,0,1-.321.435,6.258,6.258,0,0,1-.514.427q-.37.285-.418.332a3.007,3.007,0,0,0-1.076,2.4,1.324,1.324,0,0,0,.193.839.885.885,0,0,0,.691.221q.947,0,.948-.658a5.25,5.25,0,0,1,.04-.763,1.661,1.661,0,0,1,.241-.578,2.682,2.682,0,0,1,.62-.667,3.839,3.839,0,0,0,1.813-2.939A2.328,2.328,0,0,0,375.193,41.071Z" transform="translate(-369.555 -40.316)" fill="#fff"/>
      </g>
    </g>
    <g id="Group_23" data-name="Group 23" transform="translate(0 14.132)">
      <g id="Group_22" data-name="Group 22">
        <g id="Group_21" data-name="Group 21">
          <path id="Path_37" data-name="Path 37" d="M32.2,152.639l-4.335-.849a3.764,3.764,0,0,1-1.392-.568.907.907,0,0,0-.094-.063,2.447,2.447,0,0,1-1.084-1.959v-1.8a9.805,9.805,0,0,0,1.658-1.639,3.925,3.925,0,0,0,3.841-3.787,2.54,2.54,0,0,0,1.735-2.4V134.8a2.538,2.538,0,0,0-1.644-2.371.934.934,0,0,0,.558-1.111,16.663,16.663,0,0,0-4.265-7.8,11.342,11.342,0,0,0-7.364-3.466,11.936,11.936,0,0,0-7.74,2.819,12.726,12.726,0,0,0-2.664,3.215l0,0-.006.011-.005.008v0A11.254,11.254,0,0,0,7.7,132.468,2.54,2.54,0,0,0,6.154,134.8v4.765A2.539,2.539,0,0,0,8.691,142.1H9.915a9.75,9.75,0,0,0,3.81,5.543V149.2a2.448,2.448,0,0,1-1.084,1.959.931.931,0,0,0-.093.063,3.763,3.763,0,0,1-1.392.569l-4.335.849C2.8,153.426,0,156.435,0,159.957v4.659a.934.934,0,0,0,.934.934H38.085a.934.934,0,0,0,.934-.934v-4.659C39.019,156.435,36.214,153.426,32.2,152.639Zm-3.774-9.454a9.622,9.622,0,0,0,.344-1.08h.143A2.044,2.044,0,0,1,28.424,143.185Zm2.238-8.381v4.765a.67.67,0,0,1-.669.669h-.928v-6.1h.928A.67.67,0,0,1,30.662,134.8ZM13.284,124.3a10.219,10.219,0,0,1,6.434-2.377,9.536,9.536,0,0,1,6.162,2.943,14.844,14.844,0,0,1,3.761,6.941.928.928,0,0,0,.287.459h-.9a.932.932,0,0,0-1.4-.521l-.01.005a10.965,10.965,0,0,1-4.649,1.059,13.8,13.8,0,0,1-8.633-3.134l-2.964-3.2A10.5,10.5,0,0,1,13.284,124.3ZM9.618,139.718v.519H8.691a.67.67,0,0,1-.669-.669V134.8a.67.67,0,0,1,.669-.669h.928Zm.718-8.094a.929.929,0,0,0-.328.149c-.147.064-.3.125-.446.181a9.332,9.332,0,0,1,.78-3.629,19.074,19.074,0,0,0,1.94,2.054,10.4,10.4,0,0,1-1.552,1.046C10.6,131.5,10.469,131.561,10.336,131.625Zm1.149,8.094v-6.581l.129-.067a12.6,12.6,0,0,0,2.14-1.486,15.541,15.541,0,0,0,9.215,3.094,15.009,15.009,0,0,0,4.228-.7v5.743a7.807,7.807,0,0,1-1.206,4.176H20.251a.934.934,0,0,0,0,1.867h4.1a7.851,7.851,0,0,1-12.87-6.043Zm25.666,23.964H31.986V162.1a.934.934,0,1,0-1.867,0v1.586H8.908V162.1a.934.934,0,1,0-1.867,0v1.586H1.867v-3.725c0-2.617,2.184-4.873,5.312-5.485l4.335-.849a5.774,5.774,0,0,0,1.523-.523,10.674,10.674,0,0,0,1.8,1.114.934.934,0,0,0,.82-1.678,8.758,8.758,0,0,1-1.086-.632,4.143,4.143,0,0,0,1.022-2.7v-.511a9.7,9.7,0,0,0,7.834-.15v.661a4.143,4.143,0,0,0,1.021,2.7,8.783,8.783,0,0,1-4.938,1.521,8.919,8.919,0,0,1-1.074-.065.934.934,0,1,0-.226,1.854,10.775,10.775,0,0,0,1.3.079,10.648,10.648,0,0,0,6.47-2.192,5.773,5.773,0,0,0,1.525.524l4.335.849c3.128.612,5.312,2.868,5.312,5.485v3.725Z" transform="translate(0 -120.055)" fill="#fff"/>
          <path id="Path_38" data-name="Path 38" d="M140.807,303.387a4.426,4.426,0,0,0,3.139-1.3.871.871,0,1,0-1.232-1.232,2.7,2.7,0,0,1-3.815,0,.871.871,0,1,0-1.232,1.232A4.426,4.426,0,0,0,140.807,303.387Z" transform="translate(-121.454 -279.634)" fill="#fff"/>
        </g>
      </g>
    </g>
    <g id="Group_25" data-name="Group 25" transform="translate(14.985 29.168)">
      <g id="Group_24" data-name="Group 24">
        <circle id="Ellipse_10" data-name="Ellipse 10" cx="0.871" cy="0.871" r="0.871" fill="#fff"/>
      </g>
    </g>
    <g id="Group_27" data-name="Group 27" transform="translate(21.61 29.168)">
      <g id="Group_26" data-name="Group 26">
        <circle id="Ellipse_11" data-name="Ellipse 11" cx="0.871" cy="0.871" r="0.871" fill="#fff"/>
      </g>
    </g>
  </g>
</svg>
