<svg xmlns="http://www.w3.org/2000/svg" width="59.034" height="48.486" viewBox="0 0 59.034 48.486">
  <g id="dollar" transform="translate(0 -45.744)">
    <g id="Group_29" data-name="Group 29" transform="translate(0 68.505)">
      <g id="Group_28" data-name="Group 28">
        <path id="Path_39" data-name="Path 39" d="M54.6,245.962a4.352,4.352,0,0,0-1.787.4,4.38,4.38,0,0,0-5.478-1.224l-.061.034-1.813,1.075a4.375,4.375,0,0,0-5.383-1.109l-.073.041-6.94,4.25c-1.567-.463-3.307-.971-4.988-1.448-1.774-.5-3.479-.971-4.847-1.316-.685-.173-1.284-.315-1.773-.416-.245-.051-.463-.091-.656-.121a3.664,3.664,0,0,0-.544-.05,3.339,3.339,0,0,0-.406.03c-.511.067-1.238.223-2.1.424-1.752.412-3.988,1.01-5.223,1.347v-2.091a2.646,2.646,0,0,0-2.638-2.638H2.638A2.646,2.646,0,0,0,0,245.788v20.447a2.646,2.646,0,0,0,2.638,2.638H9.894a2.646,2.646,0,0,0,2.638-2.638v-1.588c1.566.341,5.041,1.092,8.705,1.844,2.478.509,5.039,1.018,7.155,1.4,1.058.192,2,.352,2.78.466a14.361,14.361,0,0,0,1.808.185,3.851,3.851,0,0,0,1.026-.164,14.2,14.2,0,0,0,2.263-.916,113.373,113.373,0,0,0,11.3-6.872c4.033-2.692,7.8-5.35,9.653-6.623a4.3,4.3,0,0,0,1.807-3.571A4.438,4.438,0,0,0,54.6,245.962ZM10.553,266.235a.668.668,0,0,1-.66.66H2.638a.668.668,0,0,1-.66-.66V245.788a.668.668,0,0,1,.66-.66H9.894a.668.668,0,0,1,.66.66Zm45.551-13.9c-2.273,1.566-7.359,5.157-12.282,8.355-2.46,1.6-4.878,3.1-6.862,4.181a28.064,28.064,0,0,1-2.581,1.275,8.178,8.178,0,0,1-.906.324,2.08,2.08,0,0,1-.493.091,13.209,13.209,0,0,1-1.521-.164c-2.6-.381-7.463-1.352-11.652-2.226-2.1-.437-4.027-.85-5.434-1.154-.817-.176-1.448-.314-1.841-.4V249.93l.751-.205c1.043-.283,2.634-.707,4.062-1.059.713-.176,1.386-.333,1.921-.445.266-.055.5-.1.678-.128a2.71,2.71,0,0,1,.313-.038,2.4,2.4,0,0,1,.248.028c.546.082,1.665.344,3.029.7,4.109,1.073,10.587,3.013,13.2,3.808A5.912,5.912,0,0,1,39,253.777a2.63,2.63,0,0,1,.61.8,2.258,2.258,0,0,1,.215.986,2.8,2.8,0,0,1-2.777,2.8l-2.553-.25L25.783,257a.99.99,0,1,0-.253,1.963l8.742,1.122,2.706.265h.049a4.781,4.781,0,0,0,4.779-4.779,4.243,4.243,0,0,0-.406-1.836,4.968,4.968,0,0,0-1.737-1.947,8.654,8.654,0,0,0-2.348-1.084c-.459-.139-1.037-.315-1.7-.513l5.37-3.289a2.386,2.386,0,0,1,2.736.379l-2.653,1.573a.99.99,0,0,0,1.01,1.7l6.158-3.652a2.389,2.389,0,0,1,2.829.464l-7.17,4.252a.99.99,0,1,0,1.01,1.7l7.754-4.6a.942.942,0,0,0,.613-.364l.242-.144a2.42,2.42,0,0,1,1.087-.271,2.457,2.457,0,0,1,2.456,2.457A2.344,2.344,0,0,1,56.1,252.339Z" transform="translate(0 -243.149)" fill="#fff"/>
      </g>
    </g>
    <g id="Group_31" data-name="Group 31" transform="translate(25.394 45.744)">
      <g id="Group_30" data-name="Group 30">
        <path id="Path_40" data-name="Path 40" d="M230.6,57.008a8.809,8.809,0,0,0-2.874-1.27c-.136-.038-.269-.069-.4-.1v-6.04a4.588,4.588,0,0,1,2.153.817,2.452,2.452,0,0,1,.727.883,2.591,2.591,0,0,1,.241,1.126.989.989,0,1,0,1.979,0,4.567,4.567,0,0,0-.434-1.979,4.678,4.678,0,0,0-2.231-2.171,7.556,7.556,0,0,0-2.434-.666v-.87a.989.989,0,1,0-1.979,0v.815a6.9,6.9,0,0,0-1.931.413,4.887,4.887,0,0,0-2.447,1.958,4.725,4.725,0,0,0-.722,2.5,3.973,3.973,0,0,0,1.863,3.518,9.666,9.666,0,0,0,2.845,1.135l.391.1v6.5a4.042,4.042,0,0,1-2.2-.836,2.574,2.574,0,0,1-.925-2.037.989.989,0,0,0-1.979,0,4.569,4.569,0,0,0,1.626,3.548,6.061,6.061,0,0,0,3.474,1.323v.859a.989.989,0,1,0,1.979,0v-.9a7.1,7.1,0,0,0,3.061-.943,4.215,4.215,0,0,0,1.5-1.576,5.264,5.264,0,0,0-.02-4.688A4.385,4.385,0,0,0,230.6,57.008Zm-5.259-1.882a6.963,6.963,0,0,1-2.3-.949,1.971,1.971,0,0,1-.6-.688,2.315,2.315,0,0,1-.223-1.07,2.728,2.728,0,0,1,.769-1.891,3.07,3.07,0,0,1,1.125-.718,4.872,4.872,0,0,1,1.226-.273v5.589Zm4.8,7.045a2.152,2.152,0,0,1-.555.659,3.741,3.741,0,0,1-1.445.661,7.036,7.036,0,0,1-.818.146V57.683a8.373,8.373,0,0,1,1.608.609,2.887,2.887,0,0,1,1.107.937,2.741,2.741,0,0,1,.406,1.567A2.855,2.855,0,0,1,230.138,62.172Z" transform="translate(-220.242 -45.744)" fill="#fff"/>
      </g>
    </g>
  </g>
</svg>
