<svg xmlns="http://www.w3.org/2000/svg" width="30" height="28" viewBox="0 0 30 28">
  <g id="download" transform="translate(0 -17.25)">
    <g id="Group_40" data-name="Group 40" transform="translate(0 17.25)">
      <path id="Path_43" data-name="Path 43" d="M29.14,228.278a.859.859,0,0,0-.86.866v7.874a3.871,3.871,0,0,1-3.852,3.879H5.571a3.871,3.871,0,0,1-3.852-3.879v-8a.86.86,0,1,0-1.719,0v8a5.6,5.6,0,0,0,5.571,5.61H24.429A5.6,5.6,0,0,0,30,237.017v-7.874A.863.863,0,0,0,29.14,228.278Z" transform="translate(0 -214.628)" fill="#fff"/>
      <path id="Path_44" data-name="Path 44" d="M141.988,38.377a.871.871,0,0,0,.609.256.845.845,0,0,0,.609-.256l5.5-5.5a.866.866,0,0,0-1.225-1.225l-4.02,4.027V18.116a.866.866,0,1,0-1.731,0V35.677L137.7,31.651a.866.866,0,1,0-1.225,1.225Z" transform="translate(-127.597 -17.25)" fill="#fff"/>
    </g>
  </g>
</svg>
