<svg id="envelope" xmlns="http://www.w3.org/2000/svg" width="25" height="20" viewBox="0 0 25 20">
  <g id="Group_6" data-name="Group 6" transform="translate(0 0)">
    <path id="Path_3" data-name="Path 3" d="M21.948,57.75H3.057A3.141,3.141,0,0,0,0,60.964V74.536A3.141,3.141,0,0,0,3.057,77.75H21.943A3.141,3.141,0,0,0,25,74.536V60.969A3.138,3.138,0,0,0,21.948,57.75Zm1.66,16.786a1.707,1.707,0,0,1-1.66,1.746H3.057A1.707,1.707,0,0,1,1.4,74.536V60.969a1.707,1.707,0,0,1,1.66-1.746H21.943a1.707,1.707,0,0,1,1.66,1.746V74.536Z" transform="translate(0 -57.75)" fill="#fff"/>
    <path id="Path_4" data-name="Path 4" d="M68.556,116.031l6.076-5.829a.783.783,0,0,0,.051-1.05.666.666,0,0,0-.982-.055l-8.38,8.044-1.635-1.562c-.005-.006-.01-.011-.01-.016a1.052,1.052,0,0,0-.113-.1l-6.652-6.367a.662.662,0,0,0-.982.06.778.778,0,0,0,.057,1.05l6.148,5.878-6.123,6.131a.782.782,0,0,0-.031,1.05.689.689,0,0,0,.509.236.671.671,0,0,0,.473-.2l6.215-6.219,1.686,1.611a.659.659,0,0,0,.925-.005l1.732-1.661,6.179,6.279a.664.664,0,0,0,.982-.027.782.782,0,0,0-.026-1.05Z" transform="translate(-52.809 -106.202)" fill="#fff"/>
  </g>
</svg>
