<svg xmlns="http://www.w3.org/2000/svg" width="59.448" height="59.461" viewBox="0 0 59.448 59.461">
  <g id="life-insurance" transform="translate(-0.017 0)">
    <g id="_033---Insurance" data-name="033---Insurance" transform="translate(0.017 0.001)">
      <path id="Shape" d="M45.118,6.59,30.253.083a.991.991,0,0,0-.793,0L14.595,6.59A.991.991,0,0,0,14,7.5V23.057a10.915,10.915,0,0,0,4.519,8.828l10.274,7.41a1.814,1.814,0,0,0,2.127,0l10.274-7.409a10.915,10.915,0,0,0,4.519-8.828V7.5A.991.991,0,0,0,45.118,6.59ZM43.731,23.058a8.928,8.928,0,0,1-3.7,7.221l-10.178,7.34-10.178-7.34a8.928,8.928,0,0,1-3.7-7.221V8.146L29.856,2.073,43.731,8.146Z" transform="translate(-0.143 -0.001)" fill="#fff"/>
      <path id="Shape-2" data-name="Shape" d="M29.5,4.449l-10.9,4.773A.991.991,0,0,0,18,10.13V23.1a6.937,6.937,0,0,0,2.874,5.613L29.312,34.8a.991.991,0,0,0,1.159,0l8.439-6.087A6.937,6.937,0,0,0,41.784,23.1V10.13a.991.991,0,0,0-.595-.908l-10.9-4.773A.991.991,0,0,0,29.5,4.449ZM39.8,10.777V23.1A4.955,4.955,0,0,1,37.751,27.1l-7.859,5.669L22.033,27.1A4.955,4.955,0,0,1,19.982,23.1V10.777l9.91-4.338Z" transform="translate(-0.179 -0.04)" fill="#fff"/>
      <path id="Shape-3" data-name="Shape" d="M8.211,33.138,6.067,28.129A3.159,3.159,0,0,0,.287,30.681L4.17,39.224A10.526,10.526,0,0,0,6.322,42.33l6.108,6.109a1.97,1.97,0,0,0-.537,1.348v7.928A1.982,1.982,0,0,0,13.874,59.7h10.9a1.982,1.982,0,0,0,1.982-1.982V49.787A1.982,1.982,0,0,0,24.776,47.8V45.96A10.384,10.384,0,0,0,22.6,39.469a7.135,7.135,0,0,0-3.3-2.409,19.6,19.6,0,0,1-5.674-3.641A4.559,4.559,0,0,0,8.211,33.138ZM24.776,57.715h-10.9V49.787h10.9ZM21.056,40.707a8.409,8.409,0,0,1,1.737,5.253V47.8H14.6L7.723,40.929A8.572,8.572,0,0,1,5.974,38.4L2.09,29.861a1.178,1.178,0,1,1,2.154-.951l2.217,5.17a11.7,11.7,0,0,0,2.5,3.692L13.488,42.3a.991.991,0,1,0,1.4-1.4L10.362,36.37A9.775,9.775,0,0,1,9.14,34.884a2.577,2.577,0,0,1,3.21.054,21.128,21.128,0,0,0,6.323,4A5.206,5.206,0,0,1,21.056,40.707Z" transform="translate(-0.017 -0.236)" fill="#fff"/>
      <path id="Shape-4" data-name="Shape" d="M21.982,53h-.991a.991.991,0,1,0,0,1.982h.991a.991.991,0,1,0,0-1.982Z" transform="translate(-0.197 -0.476)" fill="#fff"/>
      <path id="Shape-5" data-name="Shape" d="M55.587,39.224l3.884-8.544a3.159,3.159,0,1,0-5.78-2.552l-2.139,4.99a4.571,4.571,0,0,0-5.422.3,19.6,19.6,0,0,1-5.674,3.641,7.135,7.135,0,0,0-3.3,2.409,10.384,10.384,0,0,0-2.172,6.494V47.8A1.982,1.982,0,0,0,33,49.786v7.928A1.982,1.982,0,0,0,34.982,59.7h10.9a1.982,1.982,0,0,0,1.982-1.982V49.786a1.97,1.97,0,0,0-.537-1.348l6.108-6.109A10.525,10.525,0,0,0,55.587,39.224Zm-9.7,18.49h-10.9V49.786h10.9Zm-.724-9.91H36.964V45.96A8.409,8.409,0,0,1,38.7,40.708a5.209,5.209,0,0,1,2.378-1.767,21.119,21.119,0,0,0,6.324-4,2.577,2.577,0,0,1,3.216-.062,9.717,9.717,0,0,1-1.228,1.5L44.864,40.9a.991.991,0,0,0,1.4,1.4l4.527-4.528a11.694,11.694,0,0,0,2.5-3.692l2.217-5.171a1.178,1.178,0,1,1,2.154.952L53.78,38.405a8.571,8.571,0,0,1-1.749,2.524Z" transform="translate(-0.314 -0.236)" fill="#fff"/>
      <path id="Shape-6" data-name="Shape" d="M38.982,53h-.991a.991.991,0,1,0,0,1.982h.991a.991.991,0,1,0,0-1.982Z" transform="translate(-0.35 -0.476)" fill="#fff"/>
      <path id="Shape-7" data-name="Shape" d="M24.586,21.117A.991.991,0,1,0,23.4,22.7l3.964,2.973a.991.991,0,0,0,.595.2,1.066,1.066,0,0,0,.167-.014.991.991,0,0,0,.657-.427l7.928-11.892a.991.991,0,0,0-1.649-1.1L27.711,23.462Z" transform="translate(-0.224 -0.108)" fill="#fff"/>
    </g>
  </g>
</svg>
