<svg width="53" height="63" viewBox="0 0 53 63" fill="none" xmlns="http://www.w3.org/2000/svg">
<g clip-path="url(#clip0)">
<path d="M49.736 36.9401C50.0205 36.4398 50.4696 35.6668 51.0785 34.6261C51.6849 33.5854 51.9918 32.5622 51.9918 31.5565C51.9918 30.1931 51.1135 29.1874 49.3592 28.542C47.6024 27.8965 45.5462 27.4838 43.183 27.3036C40.8199 27.126 38.4567 27.0885 36.0936 27.1961C33.7304 27.3036 31.9387 27.3587 30.7235 27.3587C29.4333 28.4344 28.2156 29.6752 27.0702 31.0737C25.9248 32.4746 24.8318 33.9106 23.7937 35.3816C22.7556 36.8551 21.8223 38.2535 21.0014 39.5819C20.1779 40.9103 19.5141 42.0061 19.015 42.8666C19.5141 42.8666 19.9807 42.8491 20.4124 42.8116C20.8417 42.7766 21.3058 42.7566 21.8099 42.7566C24.2429 42.7566 26.2667 42.8466 27.8787 43.0267C29.4907 43.2069 30.7784 43.4045 31.7466 43.6196C32.7148 43.8348 33.411 44.0324 33.8402 44.2125C34.2694 44.3927 34.519 44.4827 34.5914 44.4827C34.5914 44.6278 34.4291 44.6979 34.1072 44.6979C33.7853 44.6979 33.4085 44.6979 32.9793 44.6979C32.3355 44.6979 31.6717 44.6804 30.993 44.6428C30.3117 44.6078 29.6504 44.5878 29.0066 44.5878C24.8518 44.5878 20.914 44.9831 17.1909 45.7736C15.9731 47.785 14.8277 49.8839 13.7522 52.0728C12.6792 54.2643 11.8532 56.2907 11.2817 58.157C10.9224 59.3778 11.1021 60.0607 11.8183 60.2033C12.5344 60.3484 13.3929 60.4185 14.396 60.4185C15.756 60.4185 17.2957 60.2208 19.015 59.8256C20.7344 59.4328 22.4886 58.91 24.2778 58.2645C26.067 57.6191 27.8038 56.9011 29.4882 56.1106C31.1701 55.3225 32.6924 54.4945 34.0523 53.6339C34.6962 53.2762 35.2352 52.971 35.6644 52.7183C36.0936 52.4681 36.3806 52.3405 36.5228 52.3405H36.6301C36.6301 52.4856 35.4123 53.4163 32.9768 55.1399C32.2606 55.6428 31.2201 56.3257 29.8626 57.1863C28.5026 58.0469 26.9255 58.91 25.1363 59.7705C23.3445 60.6311 21.3757 61.3866 19.2271 62.0321C17.0786 62.6775 14.8926 63.0002 12.6742 63.0002C12.3148 63.0002 11.8856 62.9827 11.3841 62.9452C10.8825 62.9077 10.3984 62.7651 9.93422 62.5149C9.46758 62.2622 9.05584 61.8695 8.69899 61.3291C8.33966 60.7912 8.16248 60.0207 8.16248 59.015C8.16248 57.9393 8.37709 56.8085 8.8063 55.6227C9.23551 54.4394 9.62978 53.3787 9.98912 52.4456C9.91675 52.4456 9.84439 52.4831 9.77452 52.5532C8.91609 52.5532 8.07265 52.338 7.24916 51.9077C6.42568 51.4774 6.01394 50.7595 6.01394 49.7538C6.01394 48.8207 6.28344 47.9951 6.81995 47.2771C7.35646 46.5591 8.03771 45.9487 8.8612 45.4459C9.68468 44.9455 10.5955 44.5303 11.6012 44.2075C12.6043 43.8848 13.57 43.6146 14.5008 43.3995C14.9999 42.7541 15.6462 41.8034 16.4348 40.5451C17.2208 39.2892 18.0817 37.9433 19.0125 36.5073C19.9433 35.0714 20.8916 33.6004 21.8598 32.0919C22.8255 30.5834 23.7388 29.2224 24.5997 27.9991C24.3851 27.9991 23.669 28.1617 22.4512 28.4844C21.2334 28.8072 19.8011 29.275 18.1541 29.8854C16.5046 30.4958 14.7529 31.2313 12.8913 32.0919C11.0272 32.9524 9.34531 33.9406 7.84307 35.0539C6.33834 36.1671 5.12058 37.3879 4.18979 38.7163C3.259 40.0447 2.86473 41.4282 3.00697 42.8616C3.07684 43.2919 3.27647 43.6872 3.59838 44.0449C3.92029 44.4052 4.25966 44.6904 4.619 44.9055C4.97584 45.1207 5.29775 45.3008 5.58472 45.4434C5.8692 45.5885 6.01394 45.696 6.01394 45.7661C4.07999 45.4084 2.59273 44.8155 1.55713 43.9899C0.519045 43.1693 0 42.0386 0 40.6001C0 38.231 0.948255 36.2222 2.84726 34.5685C4.74377 32.9174 7.03705 31.519 9.72211 30.3682C12.4072 29.2199 15.217 28.3043 18.1541 27.6214C21.0887 26.9409 23.5966 26.4205 25.6728 26.0603C26.4588 25.4874 27.1775 24.947 27.8213 24.4442C28.4651 23.9439 29.3959 23.7262 30.6137 23.7988C31.4721 23.8713 31.9038 24.104 31.9038 24.4992C31.9038 24.8945 31.9387 25.2372 32.0111 25.5224C33.8727 25.5224 35.9863 25.5224 38.3494 25.5224C40.7126 25.5224 42.931 25.6475 45.0097 25.9002C47.0859 26.1529 48.8776 26.6532 50.3798 27.4087C51.882 28.1642 52.743 29.2925 52.9576 30.801C53.0998 31.8067 52.8852 32.8649 52.3137 33.9781C51.7398 35.0914 50.8814 36.0796 49.736 36.9401ZM10.3135 51.8002C10.6704 51.0121 11.0297 50.2391 11.3865 49.4861C11.7434 48.7331 12.1027 47.9626 12.4596 47.1695C11.2418 47.6724 10.2736 48.2102 9.55991 48.7856C8.84373 49.361 8.48439 50.0065 8.48439 50.7244C8.48439 51.1547 8.68153 51.4424 9.0758 51.585C9.47008 51.7301 9.88182 51.8002 10.3135 51.8002Z" fill="white"/>
<path d="M42.9808 10.8525C42.8411 10.8449 42.6889 10.8825 42.5666 10.955C41.249 11.7255 40.2434 12.8413 39.2702 13.922C38.8859 14.3473 38.4891 14.7876 38.0798 15.2029L37.9651 15.318L37.9676 15.1554C37.9975 13.6393 38.1497 12.1558 38.2945 10.9075C38.3094 10.7849 38.2895 10.6898 38.2346 10.6248C38.1697 10.5447 38.0674 10.5247 37.9925 10.5197C37.7954 10.5097 37.5633 10.6073 37.431 10.7549C36.9295 11.3153 36.4803 11.9482 36.0436 12.5586C35.5645 13.2341 35.0679 13.932 34.4939 14.5449L34.4091 14.6375L34.3841 14.5124C34.0298 12.7137 33.8376 10.9225 33.7104 9.56408C33.5482 7.83792 33.1639 6.05672 32.5325 4.1129C32.4926 3.99032 32.4252 3.92778 32.3229 3.92278C32.0484 3.90777 31.6043 4.30553 31.5194 4.49316C30.923 5.80405 30.4439 7.19999 29.9797 8.5484C29.3933 10.2545 28.7869 12.0207 27.936 13.6393L27.8811 13.7419L27.8212 13.6418C27.5043 13.099 27.2822 12.4961 27.0676 11.9132C26.8181 11.2352 26.5585 10.5347 26.1518 9.92933C26.0744 9.81175 25.9746 9.75171 25.8573 9.7442C25.5379 9.72919 25.1511 10.1245 25.0937 10.4297C24.9166 11.3953 24.697 12.3385 24.4874 13.2165L24.4549 13.3767L24.2927 13.084C23.3919 11.4679 22.4586 9.79424 20.6918 8.93116C20.4373 8.80607 20.1578 8.87612 20.0206 9.08626C19.9208 9.23636 19.9133 9.43149 19.9981 9.61912C20.7467 11.2727 20.9539 12.4936 21.1535 13.6744C21.1909 13.902 21.2308 14.1297 21.2708 14.3573C21.4355 15.2579 21.6251 16.6213 21.8073 17.9422C22.0468 19.6784 22.3463 21.8274 22.501 22.08C24.3301 21.1744 27.5293 20.1787 30.5761 20.3313C30.923 20.3489 31.2649 20.3814 31.5893 20.4289C34.0547 20.7842 36.2757 21.8223 37.6007 22.4403C38.1747 22.7079 38.5889 22.9031 38.7461 22.9106C38.7686 22.9106 38.7736 22.9081 38.7761 22.9081C40.1311 19.0955 41.541 15.1403 43.2678 11.3528C43.3327 11.2077 43.3427 11.0876 43.2928 11.0026C43.2404 10.915 43.1281 10.86 42.9808 10.8525ZM41.5535 12.9389C40.2833 15.8959 39.1604 18.9879 38.2071 21.6547L38.1797 21.7348L38.1123 21.6898C36.076 20.3313 33.5557 19.5433 30.8232 19.4057C28.2604 19.2781 25.6752 19.7234 23.3469 20.6941L23.2596 20.7316L23.2571 20.6341C23.2147 18.5927 22.5409 15.2329 22.0468 12.7813C21.937 12.2409 21.8372 11.7406 21.7524 11.3028L21.7474 11.2702L21.7898 11.2177L21.8223 11.2202C21.8747 11.2227 21.8747 11.2227 22.6258 12.6061C23.1573 13.5893 23.8211 14.8126 24.0931 15.2429C24.1704 15.363 24.2653 15.428 24.3776 15.433C24.697 15.4481 25.0838 15.0103 25.1486 14.7351C25.2285 14.3948 25.3108 14.0546 25.3932 13.7144C25.518 13.199 25.6427 12.6812 25.7625 12.1633L25.8099 11.9632L25.8873 12.1533C25.9671 12.351 26.0445 12.5511 26.1193 12.7487C26.4462 13.5993 26.7831 14.4799 27.3945 15.2129C27.4444 15.2729 27.5068 15.303 27.5867 15.308C27.8437 15.3205 28.1706 15.0503 28.2629 14.8977C29.4557 12.9539 30.2118 10.7699 30.9455 8.65847C31.22 7.86794 31.5044 7.04989 31.8064 6.25685L31.8788 6.06922L31.9312 6.26436C32.283 7.59525 32.5151 8.89613 32.6423 10.242C32.7871 11.7756 33.0092 13.7994 33.4708 15.8458C33.5257 16.086 33.7278 16.1235 33.8152 16.126C33.9499 16.1335 34.0947 16.0835 34.202 15.9909C35.1627 15.1829 35.8989 14.1747 36.6125 13.2015C36.7174 13.0564 36.8247 12.9113 36.932 12.7662L37.0692 12.5811L37.0492 12.8138C36.9195 14.2547 36.8671 15.5156 36.887 16.6689C36.8895 16.8815 37.0767 16.924 37.189 16.9291C37.3437 16.9366 37.5184 16.884 37.6157 16.8015C38.3469 16.1785 39.0056 15.4481 39.642 14.7426C40.2159 14.1046 40.8123 13.4467 41.4611 12.8663L41.6807 12.6687L41.5535 12.9389Z" fill="white"/>
<path d="M18.7355 4.90096C18.169 4.87344 17.5577 5.21117 17.4653 6.03423C17.4229 6.41949 17.5127 6.75972 17.7248 7.01739C17.9419 7.28007 18.2763 7.44268 18.6382 7.46019C19.2046 7.48771 19.816 7.14998 19.9083 6.32943C19.9508 5.94417 19.8609 5.60394 19.6488 5.34626C19.4317 5.08108 19.0998 4.91847 18.7355 4.90096Z" fill="white"/>
<path d="M32.026 2.55931C32.5899 2.58683 33.2013 2.2491 33.2936 1.43105C33.2936 1.42855 33.2936 1.42855 33.2936 1.42605C33.2936 1.42354 33.2936 1.42354 33.2936 1.42104C33.3336 1.03828 33.2437 0.698055 33.0316 0.442883C32.8145 0.180205 32.4801 0.0175956 32.1183 8.37829e-05C31.5518 -0.0274348 30.9405 0.310293 30.8481 1.13335C30.8057 1.51861 30.8956 1.85884 31.1077 2.11651C31.3298 2.37919 31.6641 2.5418 32.026 2.55931Z" fill="white"/>
<path d="M45.4065 7.45753C45.1894 7.19485 44.855 7.03224 44.4931 7.01473C43.9267 6.98721 43.3153 7.32494 43.2255 8.14549C43.183 8.53075 43.2729 8.87098 43.485 9.12866C43.7021 9.39133 44.0365 9.55394 44.3983 9.57146C44.9623 9.59897 45.5736 9.26125 45.666 8.4432V8.43819C45.666 8.43569 45.666 8.43569 45.666 8.43319C45.7109 8.05543 45.6211 7.7152 45.4065 7.45753Z" fill="white"/>
<path d="M38.7985 9.20636C39.1279 9.22388 39.4823 9.02624 39.5347 8.54842C39.5596 8.32327 39.5072 8.12564 39.3824 7.97553C39.2552 7.82293 39.063 7.72787 38.8534 7.71786C38.5265 7.70035 38.1697 7.89798 38.1173 8.3758C38.0923 8.60096 38.1447 8.79859 38.2695 8.94869C38.3968 9.1038 38.5889 9.19636 38.7985 9.20636Z" fill="white"/>
<path d="M25.7676 7.36763C25.6403 7.21502 25.4482 7.11996 25.2385 7.10995C24.9116 7.09244 24.5548 7.29007 24.5024 7.76789C24.4774 7.99305 24.5298 8.19068 24.6546 8.34078C24.7819 8.49338 24.974 8.58845 25.1836 8.59845C25.5105 8.61597 25.8674 8.41833 25.9198 7.94051C25.9447 7.71536 25.8923 7.51773 25.7676 7.36763Z" fill="white"/>
</g>
<defs>
<clipPath id="clip0">
<rect width="53" height="63" fill="white"/>
</clipPath>
</defs>
</svg>
