<svg id="skype" xmlns="http://www.w3.org/2000/svg" width="24.918" height="24.918" viewBox="0 0 24.918 24.918">
  <path id="Path_5" data-name="Path 5" d="M23.387,13.159c.015-.233.022-.467.022-.7a10.987,10.987,0,0,0-10.95-11c-.233,0-.467.007-.7.022A7.337,7.337,0,0,0,0,7.349a7.314,7.314,0,0,0,1.482,4.41c-.015.233-.022.467-.022.7a11.027,11.027,0,0,0,11,11c.233,0,.467-.007.7-.022A7.31,7.31,0,0,0,23.387,13.159Zm-5.818,10.3a5.95,5.95,0,0,1-3.947-1.526c-.2.015-.585.066-1.163.066A9.55,9.55,0,0,1,2.92,12.459c0-.579.051-.969.066-1.163A5.947,5.947,0,0,1,1.46,7.349,5.871,5.871,0,0,1,7.3,1.46a5.963,5.963,0,0,1,4,1.526c.193-.014.584-.066,1.163-.066a9.525,9.525,0,0,1,9.49,9.539c0,.579-.051.969-.066,1.163a6.081,6.081,0,0,1,1.574,3.948,5.9,5.9,0,0,1-5.889,5.889Zm0,0" transform="translate(0 0)" fill="#fff"/>
  <path id="Path_6" data-name="Path 6" d="M126.619,97.5a3.535,3.535,0,0,1-1.882-.487,1.75,1.75,0,0,1-.3-.243,1.744,1.744,0,0,1,.3-.243,3.875,3.875,0,0,1,4.044.225,1.881,1.881,0,0,0,1.741.748,2.138,2.138,0,0,0,1.679-3.461c-2.224-2.8-7.218-2.975-9.942-1.156a4.473,4.473,0,0,0,0,7.772,8.029,8.029,0,0,0,4.362,1.224,3.535,3.535,0,0,1,1.882.487,1.209,1.209,0,0,1,.277.243,1.208,1.208,0,0,1-.278.243,3.953,3.953,0,0,1-4.092-.225,2.243,2.243,0,0,0-3.668.464,2.112,2.112,0,0,0,.248,2.249,7.211,7.211,0,0,0,5.631,2.379,7.828,7.828,0,0,0,4.311-1.223,4.708,4.708,0,0,0,2.259-3.887c0-2.65-2.625-5.11-6.57-5.11Zm3.5,7.782a6.356,6.356,0,0,1-3.5.978,5.8,5.8,0,0,1-4.488-1.828.651.651,0,0,1-.076-.706.794.794,0,0,1,1.22-.178c1.024,1.26,4.2,1.747,6.036.519a1.587,1.587,0,0,0,0-2.915,4.964,4.964,0,0,0-2.692-.733,6.54,6.54,0,0,1-3.551-.979,3.023,3.023,0,0,1,0-5.343c2.12-1.416,6.267-1.316,7.989.85a.651.651,0,0,1,.076.706.673.673,0,0,1-.612.386c-.36-.015-.41.035-.608-.209-1.006-1.238-4.124-1.762-5.987-.519a1.558,1.558,0,0,0,0,2.915,4.964,4.964,0,0,0,2.692.733,6.357,6.357,0,0,1,3.5.979,3.023,3.023,0,0,1,0,5.343Zm0,0" transform="translate(-114.16 -87.231)" fill="#fff"/>
</svg>
