<svg id="success" xmlns="http://www.w3.org/2000/svg" width="122" height="122" viewBox="0 0 122 122">
  <path id="Path_54" data-name="Path 54" d="M61,0a61,61,0,1,0,61,61A61.069,61.069,0,0,0,61,0Zm0,117.308A56.308,56.308,0,1,1,117.308,61,56.373,56.373,0,0,1,61,117.308Z" fill="#fff"/>
  <path id="Path_55" data-name="Path 55" d="M73.591,15.789,37.533,56.354,15.81,38.976a2.346,2.346,0,0,0-2.93,3.665L36.342,61.41a2.348,2.348,0,0,0,3.221-.274L77.1,18.9a2.347,2.347,0,0,0-3.51-3.116Z" transform="translate(16.154 20.192)" fill="#fff"/>
</svg>
