<svg id="viber" xmlns="http://www.w3.org/2000/svg" width="24.73" height="27.027" viewBox="0 0 24.73 27.027">
  <path id="Path_7" data-name="Path 7" d="M24.73,9.539A9.565,9.565,0,0,0,15.191,0H9.538A9.565,9.565,0,0,0,0,9.539v4.443A9.454,9.454,0,0,0,1.734,19.45,9.572,9.572,0,0,0,5.65,22.687v2.552c0,1.319.739,1.788,1.371,1.788a1.933,1.933,0,0,0,1.344-.663l2.843-2.843h3.982a9.565,9.565,0,0,0,9.539-9.539Zm-9.539,12.4h-4.31a.791.791,0,0,0-.56.232L7.246,25.244l-.012.012v-3.1a.792.792,0,0,0-.51-.74,8.014,8.014,0,0,1-5.141-7.437V9.539A7.981,7.981,0,0,1,9.539,1.583h5.652a7.981,7.981,0,0,1,7.956,7.956v4.443a7.965,7.965,0,0,1-7.955,7.955Zm0,0" transform="translate(0.001 0)" fill="#fff"/>
  <path id="Path_8" data-name="Path 8" d="M82.727,122.8a.792.792,0,0,0-1.12,0l-.64.639-2.479-2.478.64-.639a.792.792,0,0,0,0-1.12l-3-3a.792.792,0,0,0-1.12,0l-2.1,2.1a2.916,2.916,0,0,0,0,4.118l6.6,6.6a2.919,2.919,0,0,0,4.118,0l2.1-2.1a.792.792,0,0,0,0-1.12Zm-.22,5.1a1.335,1.335,0,0,1-1.879,0l-6.6-6.6a1.33,1.33,0,0,1,0-1.879l1.539-1.539,1.879,1.879-.64.639a.792.792,0,0,0,0,1.12l3.6,3.6a.792.792,0,0,0,1.12,0l.64-.639,1.879,1.879Zm0,0" transform="translate(-68.256 -109.851)" fill="#fff"/>
  <path id="Path_9" data-name="Path 9" d="M223.675,66.355a.792.792,0,0,0,0,1.584,6.785,6.785,0,0,1,6.784,6.784.792.792,0,1,0,1.584,0,8.368,8.368,0,0,0-8.368-8.368Zm0,0" transform="translate(-211.117 -62.852)" fill="#fff"/>
  <path id="Path_10" data-name="Path 10" d="M227.067,135.6a.792.792,0,1,0,1.584,0,4.981,4.981,0,0,0-4.976-4.975.792.792,0,1,0,0,1.584A3.4,3.4,0,0,1,227.067,135.6Zm0,0" transform="translate(-211.118 -123.726)" fill="#fff"/>
</svg>
