<svg id="whatsapp" xmlns="http://www.w3.org/2000/svg" width="25.384" height="25.384" viewBox="0 0 25.384 25.384">
  <path id="Path_11" data-name="Path 11" d="M6.14,23.573a12.6,12.6,0,0,0,6.508,1.8A12.757,12.757,0,0,0,25.384,12.688,12.687,12.687,0,1,0,1.812,19.245L0,25.384ZM1.5,12.688A11.147,11.147,0,1,1,6.649,22.14l-.286-.183L2.2,23.186l1.228-4.164-.183-.286A11.2,11.2,0,0,1,1.5,12.688Zm0,0" transform="translate(0 -0.001)" fill="#fff"/>
  <path id="Path_12" data-name="Path 12" d="M121.3,98.421a11.209,11.209,0,0,0,8.989,8.989c1.477.281,3.644.324,4.7-.736l.59-.59a1.578,1.578,0,0,0,0-2.232l-2.361-2.361a1.578,1.578,0,0,0-2.232,0l-.59.59a1.05,1.05,0,0,1-1.4,0l-2.355-2.454-.011-.011a.928.928,0,0,1,0-1.31l.59-.59a1.577,1.577,0,0,0,0-2.232l-2.361-2.361a1.58,1.58,0,0,0-2.232,0l-.59.59h0c-.845.846-1.127,2.648-.736,4.7Zm1.787-3.652c.62-.606.587-.617.655-.617a.091.091,0,0,1,.065.027c2.488,2.5,2.388,2.355,2.388,2.426a.089.089,0,0,1-.027.065l-.59.59a2.412,2.412,0,0,0-.006,3.407l2.357,2.456.011.011a2.536,2.536,0,0,0,3.512,0l.59-.59a.092.092,0,0,1,.129,0c2.488,2.5,2.388,2.354,2.388,2.426a.089.089,0,0,1-.027.065l-.59.59c-.4.4-1.693.647-3.374.327a9.722,9.722,0,0,1-7.807-7.807c-.32-1.681-.078-2.97.326-3.374Zm0,0" transform="translate(-115.122 -88.072)" fill="#fff"/>
</svg>
